<svg width="44" height="57" viewBox="0 0 44 57" fill="none" xmlns="http://www.w3.org/2000/svg">
<path d="M42.5337 1.12615L35.6325 0.0118559C35.4284 -0.0327157 35.2242 0.056422 35.1425 0.145565L32.2024 4.33529C31.9982 4.60272 31.9574 4.9593 32.039 5.2713C32.1207 5.5833 31.8757 5.85073 31.5899 5.80616L29.1806 5.22672C28.8131 5.13758 28.4047 5.2713 28.1597 5.62788L18.6043 18.9993C18.441 19.2668 18.1143 19.3559 17.8284 19.2222L14.1941 17.4393C13.8674 17.2611 13.4999 17.3056 13.2141 17.5285L11.3765 18.9102C11.0907 19.1331 10.6823 19.1776 10.3556 18.9993L9.45725 18.5091C8.88556 18.1971 8.19136 18.5536 8.02802 19.2222L7.37466 22.3868C7.21132 23.1445 7.49716 23.9022 8.10969 24.3034L9.49808 25.2394L13.9491 28.2257L16.1134 29.6965C16.7259 30.0977 17.5018 30.0085 18.0326 29.5182L21.6669 26.0417C21.9528 25.7742 22.402 25.6851 22.7287 25.9079L23.8312 26.5319C24.1987 26.7548 24.6479 26.6657 24.9337 26.3537L26.7713 24.4816C27.0572 24.1696 27.5064 24.1251 27.833 24.3034L30.569 25.6851C30.9773 25.9079 31.4674 25.7742 31.7532 25.3731L33.0191 23.5902L42.6153 10.1742C43.0645 9.55017 42.7787 8.61417 42.0436 8.43588L39.9202 7.90102C39.471 7.81187 39.2669 7.18787 39.5935 6.8313L42.9012 2.32957C43.2279 1.79471 43.0237 1.21529 42.5337 1.12615Z" fill="#8257E5"/>
<path d="M10.449 28.0568C10.2295 27.9249 10.0099 28.1447 10.0977 28.3644L11.1956 31.2652C11.2834 31.485 11.2834 31.7048 11.2395 31.9245L10.2734 35.7043C10.2295 35.9681 10.3173 36.2318 10.4929 36.3636L13.2596 38.5173C13.5231 38.6931 13.8744 38.6931 14.094 38.4733L16.9924 35.9241C17.168 35.7922 17.3876 35.7044 17.5633 35.6604L20.8569 35.3088C21.0765 35.2648 21.1643 34.9572 20.9447 34.8253L10.449 28.0568Z" fill="#8257E5"/>
<path d="M9.79174 37.809C9.62545 37.6797 9.37603 37.6366 9.16818 37.7228L6.96494 38.8435C6.84023 38.8866 6.75709 39.0159 6.67395 39.1452L1.97648 51.1708C1.97648 51.2139 1.97648 51.2138 1.97648 51.2569C2.01805 51.3 2.05962 51.3431 2.14276 51.3431L3.2236 50.9121C3.26517 50.9121 3.30673 50.9121 3.3483 50.9121C3.38987 50.9552 3.43145 51.0414 3.38987 51.0845L0.0226591 56.8172C-0.060482 56.9465 0.105804 57.0758 0.188945 56.9465L12.3691 44.2744C12.4938 44.1451 12.5354 44.0158 12.577 43.8434L12.8264 40.5676C12.8264 40.3521 12.7432 40.1796 12.6185 40.0503L9.79174 37.809Z" fill="#8257E5"/>
</svg>
